<svg xmlns="http://www.w3.org/2000/svg" viewBox="0 0 841.9 595.3">
  <g fill="#61DAFB">
    <circle cx="420.9" cy="296.5" r="45.7"/>
    <path d="M520.5 78.1c-58.5-33.8-121.2-52.2-181.1-52.2-54.6 0-103.8 14.6-139.2 41.2-36.4 27.3-50.6 63.8-40.1 103.2 10.6 40.2 45.5 83.7 98.1 120.7-5.4 15.4-9.8 30.9-13.2 46.2-53.6-7.7-99.4-26.6-130.6-55-32.2-29.2-46.7-65.2-41.7-102.5 5-37.6 30.7-71.4 73.2-95.5 44.2-25.2 101.8-38.5 163.5-38.5 64.2 0 133.7 15.8 199.2 45.7 4.5-16.6 7-33.1 7.4-49.1 0-16.7-2.7-32.3-7.9-46.2z"/>
  </g>
</svg>
